<svg xmlns="http://www.w3.org/2000/svg" viewBox="0 0 80 80" width="30" height="30"><path fill="#8bb7f0" d="M60,70.5c-2.003,0-3.887-0.78-5.304-2.196c-2.924-2.925-2.924-7.683,0-10.607 C56.113,56.28,57.997,55.5,60,55.5s3.887,0.78,5.304,2.196c2.924,2.925,2.924,7.683,0,10.607C63.887,69.72,62.003,70.5,60,70.5z"/><path fill="#4e7ab5" d="M60,56c1.87,0,3.628,0.728,4.95,2.05S67,61.13,67,63s-0.728,3.628-2.05,4.95S61.87,70,60,70 s-3.628-0.728-4.95-2.05S53,64.87,53,63s0.728-3.628,2.05-4.95S58.13,56,60,56 M60,55c-2.047,0-4.095,0.781-5.657,2.343 c-3.124,3.124-3.124,8.19,0,11.314C55.905,70.219,57.953,71,60,71s4.095-0.781,5.657-2.343c3.124-3.124,3.124-8.19,0-11.314 C64.095,55.781,62.047,55,60,55L60,55z"/><path fill="#8bb7f0" d="M15,22.5c-1.202,0-2.332-0.468-3.182-1.318C10.968,20.332,10.5,19.202,10.5,18 s0.468-2.332,1.318-3.182C12.668,13.968,13.798,13.5,15,13.5s2.332,0.468,3.182,1.318C19.032,15.668,19.5,16.798,19.5,18 s-0.468,2.332-1.318,3.182C17.332,22.032,16.202,22.5,15,22.5z"/><path fill="#4e7ab5" d="M15,14c1.068,0,2.073,0.416,2.828,1.172S19,16.932,19,18s-0.416,2.073-1.172,2.828S16.068,22,15,22 s-2.073-0.416-2.828-1.172C11.416,20.073,11,19.068,11,18s0.416-2.073,1.172-2.828C12.927,14.416,13.932,14,15,14 M15,13 c-1.28,0-2.559,0.488-3.536,1.464c-1.953,1.953-1.953,5.118,0,7.071C12.441,22.512,13.72,23,15,23s2.559-0.488,3.536-1.464 c1.953-1.953,1.953-5.118,0-7.071C17.559,13.488,16.28,13,15,13L15,13z"/><path fill="#8bb7f0" d="M16,64.5c-0.668,0-1.296-0.26-1.768-0.732C13.76,63.296,13.5,62.668,13.5,62s0.26-1.296,0.732-1.768 C14.704,59.76,15.332,59.5,16,59.5s1.296,0.26,1.768,0.732C18.24,60.704,18.5,61.332,18.5,62s-0.26,1.296-0.732,1.768 C17.296,64.24,16.668,64.5,16,64.5z"/><path fill="#4e7ab5" d="M16,60c0.534,0,1.036,0.208,1.414,0.586c0.78,0.78,0.78,2.049,0,2.828 C17.036,63.792,16.534,64,16,64s-1.036-0.208-1.414-0.586c-0.78-0.78-0.78-2.049,0-2.828C14.964,60.208,15.466,60,16,60 M16,59 c-0.768,0-1.536,0.293-2.121,0.879c-1.172,1.172-1.172,3.071,0,4.243C14.464,64.707,15.232,65,16,65s1.536-0.293,2.121-0.879 c1.172-1.172,1.172-3.071,0-4.243C17.536,59.293,16.768,59,16,59L16,59z"/><path fill="#8bb7f0" d="M60,25.5c-1.736,0-3.369-0.676-4.597-1.903c-2.533-2.534-2.533-6.659,0-9.193 C56.631,13.176,58.264,12.5,60,12.5s3.369,0.676,4.597,1.903c2.533,2.534,2.533,6.659,0,9.193C63.369,24.824,61.736,25.5,60,25.5z"/><path fill="#4e7ab5" d="M60,13c1.603,0,3.109,0.624,4.243,1.757c2.339,2.339,2.339,6.146,0,8.485 C63.109,24.376,61.603,25,60,25s-3.109-0.624-4.243-1.757c-2.339-2.339-2.339-6.146,0-8.485C56.891,13.624,58.397,13,60,13 M60,12 c-1.791,0-3.583,0.683-4.95,2.05c-2.734,2.734-2.734,7.166,0,9.9C56.417,25.317,58.209,26,60,26s3.583-0.683,4.95-2.05 c2.734-2.734,2.734-7.166,0-9.9C63.583,12.683,61.791,12,60,12L60,12z"/><g><path fill="#8bb7f0" d="M36,73.5c-0.4,0-0.777-0.156-1.061-0.439c-0.585-0.585-0.585-1.536,0-2.121 C35.223,70.656,35.6,70.5,36,70.5s0.777,0.156,1.061,0.439c0.585,0.585,0.585,1.536,0,2.121C36.777,73.344,36.4,73.5,36,73.5z"/><path fill="#4e7ab5" d="M36,71c0.267,0,0.518,0.104,0.707,0.293C36.896,71.482,37,71.733,37,72s-0.104,0.518-0.293,0.707 C36.518,72.896,36.267,73,36,73s-0.518-0.104-0.707-0.293C35.104,72.518,35,72.267,35,72s0.104-0.518,0.293-0.707 C35.482,71.104,35.733,71,36,71 M36,70c-0.512,0-1.024,0.195-1.414,0.586c-0.781,0.781-0.781,2.047,0,2.828 C34.976,73.805,35.488,74,36,74s1.024-0.195,1.414-0.586c0.781-0.781,0.781-2.047,0-2.828C37.024,70.195,36.512,70,36,70L36,70z"/></g><g><path fill="#8bb7f0" d="M37,14.5c-1.469,0-2.85-0.572-3.889-1.611S31.5,10.469,31.5,9s0.572-2.85,1.611-3.889 S35.531,3.5,37,3.5s2.85,0.572,3.889,1.611S42.5,7.531,42.5,9s-0.572,2.85-1.611,3.889S38.469,14.5,37,14.5z"/><path fill="#4e7ab5" d="M37,4c1.336,0,2.591,0.52,3.536,1.465C41.48,6.409,42,7.664,42,9s-0.52,2.591-1.465,3.536 C39.591,13.48,38.336,14,37,14s-2.591-0.52-3.536-1.465C32.52,11.591,32,10.336,32,9s0.52-2.591,1.465-3.536 C34.409,4.52,35.664,4,37,4 M37,3c-1.536,0-3.071,0.586-4.243,1.757c-2.343,2.343-2.343,6.142,0,8.485 C33.929,14.414,35.464,15,37,15s3.071-0.586,4.243-1.757c2.343-2.343,2.343-6.142,0-8.485C40.071,3.586,38.536,3,37,3L37,3z"/></g><g><path fill="#8bb7f0" d="M6,43.5c-0.935,0-1.813-0.364-2.475-1.025S2.5,40.935,2.5,40s0.364-1.813,1.025-2.475 S5.065,36.5,6,36.5s1.813,0.364,2.475,1.025S9.5,39.065,9.5,40s-0.364,1.813-1.025,2.475S6.935,43.5,6,43.5z"/><path fill="#4e7ab5" d="M6,37c0.801,0,1.555,0.312,2.121,0.879C8.688,38.445,9,39.199,9,40s-0.312,1.555-0.879,2.121 C7.555,42.688,6.801,43,6,43s-1.555-0.312-2.121-0.879C3.312,41.555,3,40.801,3,40s0.312-1.555,0.879-2.121 C4.445,37.312,5.199,37,6,37 M6,36c-1.024,0-2.047,0.391-2.828,1.172c-1.562,1.562-1.562,4.095,0,5.657C3.953,43.609,4.976,44,6,44 s2.047-0.391,2.828-1.172c1.562-1.562,1.562-4.095,0-5.657C8.047,36.391,7.024,36,6,36L6,36z"/></g><g><path fill="#8bb7f0" d="M68,48.5c-2.003,0-3.887-0.78-5.304-2.196c-2.924-2.925-2.924-7.683,0-10.607 C64.113,34.28,65.997,33.5,68,33.5s3.887,0.78,5.304,2.196c2.924,2.925,2.924,7.683,0,10.607C71.887,47.72,70.003,48.5,68,48.5z"/><path fill="#4e7ab5" d="M68,34c1.87,0,3.628,0.728,4.95,2.05S75,39.13,75,41s-0.728,3.628-2.05,4.95S69.87,48,68,48 s-3.628-0.728-4.95-2.05S61,42.87,61,41s0.728-3.628,2.05-4.95S66.13,34,68,34 M68,33c-2.047,0-4.095,0.781-5.657,2.343 c-3.124,3.124-3.124,8.19,0,11.314C63.905,48.219,65.953,49,68,49s4.095-0.781,5.657-2.343c3.124-3.124,3.124-8.19,0-11.314 C72.095,33.781,70.047,33,68,33L68,33z"/></g></svg>